<mxfile host="app.diagrams.net" modified="2021-06-02T09:58:13.375Z" agent="5.0 (Windows NT 10.0; Win64; x64) AppleWebKit/537.36 (KHTML, like Gecko) Chrome/90.0.4430.212 Safari/537.36" etag="qA0tTQQl51uMC3SOq5sD" version="14.6.3" type="github">
  <diagram id="C5RBs43oDa-KdzZeNtuy" name="Page-1">
    <mxGraphModel dx="1399" dy="546" grid="1" gridSize="10" guides="1" tooltips="1" connect="1" arrows="1" fold="1" page="1" pageScale="1" pageWidth="827" pageHeight="1169" math="0" shadow="0">
      <root>
        <mxCell id="WIyWlLk6GJQsqaUBKTNV-0" />
        <mxCell id="WIyWlLk6GJQsqaUBKTNV-1" parent="WIyWlLk6GJQsqaUBKTNV-0" />
        <mxCell id="EiYGOnPo019CcTky1apd-0" value="business（商家信息表）" style="swimlane;fontStyle=0;childLayout=stackLayout;horizontal=1;startSize=26;fillColor=none;horizontalStack=0;resizeParent=1;resizeParentMax=0;resizeLast=0;collapsible=1;marginBottom=0;" vertex="1" parent="WIyWlLk6GJQsqaUBKTNV-1">
          <mxGeometry x="210" y="160" width="350" height="250" as="geometry" />
        </mxCell>
        <mxCell id="EiYGOnPo019CcTky1apd-1" value="id: bigint 主键&#xa;title: varchar  商家名称&#xa;name: varchar 联系人名称&#xa;phone_number: varchar 手机号&#xa;pass_word：varchar 密码&#xa;address: varchar 地址&#xa;logo_path：varchar logo路径&#xa;tag：varchar 标签&#xa;introduce：varchar 介绍&#xa;hits: int 浏览量&#xa;operator: varchar&#xa;status: int&#xa;create_time: datetime&#xa;update_time: datetime&#xa;remark: varchar&#xa;&#xa;" style="text;strokeColor=none;fillColor=none;align=left;verticalAlign=top;spacingLeft=4;spacingRight=4;overflow=hidden;rotatable=0;points=[[0,0.5],[1,0.5]];portConstraint=eastwest;" vertex="1" parent="EiYGOnPo019CcTky1apd-0">
          <mxGeometry y="26" width="350" height="224" as="geometry" />
        </mxCell>
        <mxCell id="EiYGOnPo019CcTky1apd-5" value="commodity（商品表）" style="swimlane;fontStyle=0;childLayout=stackLayout;horizontal=1;startSize=26;fillColor=none;horizontalStack=0;resizeParent=1;resizeParentMax=0;resizeLast=0;collapsible=1;marginBottom=0;" vertex="1" parent="WIyWlLk6GJQsqaUBKTNV-1">
          <mxGeometry x="650" y="110" width="360" height="350" as="geometry" />
        </mxCell>
        <mxCell id="EiYGOnPo019CcTky1apd-6" value="id: bigint 主键&#xa;business_id：bigint 商家名称&#xa;business_name:varchar 商家名称&#xa;business_logo_path:varchar 商家logo路径&#xa;name: varchar 商品名称&#xa;expend_gold: int 消耗金币数量&#xa;market_value：varchar 市场价值&#xa;useable_type: int 可用范围类型&#xa;address: varchar 地址&#xa;expended_quantity: int 已消耗数量&#xa;quantity：int 数量&#xa;type：int 类型&#xa;verification_code: varchar 验证码&#xa;end_time date 过期时间&#xa;logo_path：varchar 商品图片路径&#xa;hits：int 浏览量&#xa;details：详情&#xa;operator: varchar&#xa;status: int&#xa;create_time: datetime&#xa;update_time: datetime&#xa;remark: varchar&#xa;&#xa;" style="text;strokeColor=none;fillColor=none;align=left;verticalAlign=top;spacingLeft=4;spacingRight=4;overflow=hidden;rotatable=0;points=[[0,0.5],[1,0.5]];portConstraint=eastwest;" vertex="1" parent="EiYGOnPo019CcTky1apd-5">
          <mxGeometry y="26" width="360" height="324" as="geometry" />
        </mxCell>
        <mxCell id="EiYGOnPo019CcTky1apd-7" value="user_expend_log（用户兑换记录表）" style="swimlane;fontStyle=0;childLayout=stackLayout;horizontal=1;startSize=26;fillColor=none;horizontalStack=0;resizeParent=1;resizeParentMax=0;resizeLast=0;collapsible=1;marginBottom=0;" vertex="1" parent="WIyWlLk6GJQsqaUBKTNV-1">
          <mxGeometry x="1110" y="158" width="350" height="280" as="geometry" />
        </mxCell>
        <mxCell id="EiYGOnPo019CcTky1apd-8" value="id: bigint 主键&#xa;user_name: varchar  用户名称&#xa;user_id: bigint 用户id&#xa;user_avatar_path: varchar 用户头像地址&#xa;target_id：bigint 对象id&#xa;target_name：varchar 对象名称&#xa;target_type: int 对象类型&#xa;quantity：int 数量&#xa;expend_gold: int 消耗金币&#xa;end_time：date 结束时间&#xa;expend_type int 领取类型&#xa;operator: varchar&#xa;status: int&#xa;create_time: datetime&#xa;update_time: datetime&#xa;remark: varchar&#xa;&#xa;" style="text;strokeColor=none;fillColor=none;align=left;verticalAlign=top;spacingLeft=4;spacingRight=4;overflow=hidden;rotatable=0;points=[[0,0.5],[1,0.5]];portConstraint=eastwest;" vertex="1" parent="EiYGOnPo019CcTky1apd-7">
          <mxGeometry y="26" width="350" height="254" as="geometry" />
        </mxCell>
        <mxCell id="EiYGOnPo019CcTky1apd-10" style="edgeStyle=orthogonalEdgeStyle;rounded=0;orthogonalLoop=1;jettySize=auto;html=1;exitX=1;exitY=0.5;exitDx=0;exitDy=0;entryX=0;entryY=0.5;entryDx=0;entryDy=0;startArrow=ERoneToMany;startFill=0;endArrow=ERmandOne;endFill=0;" edge="1" parent="WIyWlLk6GJQsqaUBKTNV-1" source="EiYGOnPo019CcTky1apd-1" target="EiYGOnPo019CcTky1apd-6">
          <mxGeometry relative="1" as="geometry" />
        </mxCell>
        <mxCell id="EiYGOnPo019CcTky1apd-11" style="edgeStyle=orthogonalEdgeStyle;rounded=0;orthogonalLoop=1;jettySize=auto;html=1;exitX=1;exitY=0.5;exitDx=0;exitDy=0;entryX=0;entryY=0.5;entryDx=0;entryDy=0;startArrow=ERmandOne;startFill=0;endArrow=ERmany;endFill=0;" edge="1" parent="WIyWlLk6GJQsqaUBKTNV-1" source="EiYGOnPo019CcTky1apd-6" target="EiYGOnPo019CcTky1apd-7">
          <mxGeometry relative="1" as="geometry" />
        </mxCell>
      </root>
    </mxGraphModel>
  </diagram>
</mxfile>
